<?xml version="1.0" standalone="no"?>
<!DOCTYPE svg PUBLIC "-//W3C//DTD SVG 20010904//EN"
 "http://www.w3.org/TR/2001/REC-SVG-20010904/DTD/svg10.dtd">
<svg version="1.0" xmlns="http://www.w3.org/2000/svg"
 width="65.000000pt" height="57.000000pt" viewBox="0 0 65.000000 57.000000"
 preserveAspectRatio="xMidYMid meet">

<g transform="translate(0.000000,57.000000) scale(0.100000,-0.100000)"
fill="#000000" stroke="none">
<path d="M141 560 c-64 -15 -124 -79 -137 -147 -12 -66 15 -109 172 -264 80
-79 147 -146 150 -148 10 -10 287 276 305 314 78 168 -126 324 -276 210 -29
-23 -34 -24 -45 -9 -31 37 -110 58 -169 44z m97 -64 c15 -8 38 -26 51 -40 14
-14 29 -26 34 -26 5 0 27 15 48 34 44 41 93 53 144 36 64 -21 94 -104 61 -168
-8 -15 -66 -78 -130 -141 l-115 -114 -119 111 c-155 145 -178 191 -129 263 38
57 99 74 155 45z"/>
</g>
</svg>
